<svg xmlns="http://www.w3.org/2000/svg" viewBox="0 0 24 24" id="paypal"><path fill="#303c42" d="M20.963 6.232A8.44 8.44 0 0 0 21 5.5C21 2.467 18.533 0 15.5 0h-10c-.692 0-1.275.542-1.484 1.379-.03.121-3.014 18.038-3.015 18.708-.003.192-.008.455.203.669.21.215.507.244.798.244h4.28c-.171 1.158-.28 1.924-.28 2 0 .57.43 1 1 1h5.5a.5.5 0 0 0 .493-.418l.93-5.582h1.576C19.636 18 23 14.636 23 10.5a5.49 5.49 0 0 0-2.037-4.268z"></path><path fill="#0d47a1" d="M2.004 20c.104-.916 2.835-17.743 2.983-18.379.074-.299.267-.621.514-.621h10A4.505 4.505 0 0 1 20 5.5c0 .035-.005.069-.005.105A5.452 5.452 0 0 0 17.501 5H10c-.566 0-1.285.245-1.491 1.413C8.49 6.518 7.142 15.248 6.431 20H2.004z"></path><path fill="#3163af" d="M19.895 6.704C19.316 10.268 16.226 13 12.501 13H8.502c.496-3.249.937-6.106.991-6.413C9.59 6.041 9.757 6 10 6h7.5c.883 0 1.7.264 2.395.704z"></path><path fill="#1e88e5" d="M15.501 17h-2a.5.5 0 0 0-.493.418L12.078 23H7.003c.053-.473.717-4.872 1.346-9h4.152c4.022 0 7.393-2.812 8.27-6.571A4.47 4.47 0 0 1 22 10.5c0 3.584-2.916 6.5-6.499 6.5z"></path><linearGradient id="a" x1="1.288" x2="21.051" y1="7.125" y2="16.341" gradientUnits="userSpaceOnUse"><stop offset="0" stop-color="#fff" stop-opacity=".2"></stop><stop offset="1" stop-color="#fff" stop-opacity="0"></stop></linearGradient><path fill="url(#a)" d="M20.963 6.232A8.44 8.44 0 0 0 21 5.5C21 2.467 18.533 0 15.5 0h-10c-.692 0-1.275.542-1.484 1.379-.03.121-3.014 18.038-3.015 18.708-.003.192-.008.455.203.669.21.215.507.244.798.244h4.28c-.171 1.158-.28 1.924-.28 2 0 .57.43 1 1 1h5.5a.5.5 0 0 0 .493-.418l.93-5.582h1.576C19.636 18 23 14.636 23 10.5a5.49 5.49 0 0 0-2.037-4.268z"></path></svg>